# AST/ASF file generated using VICON BodyLanguage
# -----------------------------------------------
:version 1.10
:name VICON
:units
  mass 1.0
  length 0.45
  angle deg
:documentation
   .ast/.asf automatically generated from VICON data using
   VICON BodyBuilder and BodyLanguage model FoxedUp or BRILLIANT.MOD
:root
   order TX TY TZ RX RY RZ
   axis XYZ
   position 0 0 0  
   orientation 0 0 0 
:bonedata
  begin
     id 1 
     name lhipjoint
     direction 0.677091 -0.635792 0.370561 
     length 2.74323 
     axis 0 0 0  XYZ
  end
  begin
     id 2 
     name lfemur
     direction 0.34202 -0.939693 0  
     length 7.44995  
     axis 0 0 20  XYZ
    dof rx ry rz
    limits (-160.0 20.0)
           (-70.0 70.0)
           (-60.0 70.0)
  end
  begin
     id 3 
     name ltibia
     direction 0.34202 -0.939693 0   
     length 7.34467   
     axis 0 0 20   XYZ
    dof rx
    limits (-10.0 170.0)
  end
  begin
     id 4 
     name lfoot
     direction 0.101953 -0.280114 0.954537   
     length 1.72105   
     axis -90 7.62852e-016 20   XYZ
    dof rx rz
    limits (-45.0 90.0)
           (-70.0 20.0)
  end
  begin
     id 5 
     name ltoes
     direction 1.53537e-011 -4.21915e-011 1   
     length 0.865872   
     axis -90 7.62852e-016 20   XYZ
    dof rx
    limits (-90.0 20.0)
  end
  begin
     id 6 
     name rhipjoint
     direction -0.695735 -0.620586 0.361699   
     length 2.81045  
     axis 0 0 0  XYZ 
  end
  begin
     id 7 
     name rfemur
     direction -0.34202 -0.939693 0   
     length 7.29387   
     axis 0 0 -20   XYZ
    dof rx ry rz
    limits (-160.0 20.0)
           (-70.0 70.0)
           (-70.0 60.0)
  end
  begin
     id 8 
     name rtibia
     direction -0.34202 -0.939693 0   
     length 7.44935   
     axis 0 0 -20   XYZ
    dof rx
    limits (-10.0 170.0)
 end
 begin
     id 9 
     name rfoot
     direction -0.104163 -0.286184 0.952496   
     length 1.77731  
     axis -90 -7.62852e-016 -20   XYZ
    dof rx rz
    limits (-45.0 90.0)
           (-20.0 70.0)
  end
  begin
     id 10 
     name rtoes
     direction -1.5355e-011 -4.21888e-011 1   
     length 0.892424   
     axis -90 -7.62852e-016 -20   XYZ
    dof rx
    limits (-90.0 20.0)
  end
  begin
     id 11 
     name lowerback
     direction 0.0100202 0.997226 -0.0737589   
     length 2.16892   
     axis 0 0 0   XYZ
    dof rx ry rz
    limits (-20.0 45.0)
           (-30.0 30.0)
           (-30.0 30.0)
  end
  begin
     id 12 
     name upperback
     direction 0.00432398 0.999988 -0.00215019   
     length 2.17326   
     axis 0 0 0   XYZ
    dof rx ry rz
    limits (-20.0 45.0)
           (-30.0 30.0)
           (-30.0 30.0)
  end
  begin
     id 13 
     name thorax
     direction -0.00195047 0.999485 0.0320434   
     length 2.18139   
     axis 0 0 0   XYZ
    dof rx ry rz
    limits (-20.0 45.0)
           (-30.0 30.0)
           (-30.0 30.0)
  end
  begin
     id 14 
     name lowerneck
     direction 0.00782762 0.986241 0.165128   
     length 1.88415   
     axis 0 0 0   XYZ
    dof rx ry rz
    limits (-20.0 45.0)
           (-30.0 30.0)
           (-30.0 30.0)
  end
  begin
     id 15 
     name upperneck
     direction 0.00988667 0.981098 -0.193258   
     length 1.9242   
     axis 0 0 0   XYZ
    dof rx ry rz
    limits (-20.0 45.0)
           (-30.0 30.0)
           (-30.0 30.0)
  end
  begin
     id 16
     name head
     direction 0.00252199 0.996513 -0.0833958  
     length 1.93887  
     axis 0 0 0   XYZ
    dof rx ry rz
    limits (-20.0 45.0)
           (-30.0 30.0)
           (-30.0 30.0)
  end
  begin
     id 17 
     name lclavicle
     direction 0.929492 0.368193 -0.0218667  
     length 3.5955  
     axis 0 0 0   XYZ
    dof ry rz
    limits (-20.0 10.0)
           (0.0 20.0)
  end
  begin
     id 18 
     name lhumerus
     direction 1 -4.48972e-011 1.41911e-027   
     length 5.2795   
     axis 180 -30 -90   XYZ
    dof rx ry rz
    limits (-60.0 90.0)
           (-90.0 90.0)
           (-90.0 90.0)
  end
  begin
     id 19
     name lradius
     direction 1 -4.48963e-011 7.05772e-027   
     length 3.53504   
     axis 180 -30 -90   XYZ
    dof rx
    limits (-10.0 170.0)
  end
  begin
     id 20
     name lwrist
     direction 1 -4.48957e-011 9.54866e-027   
     length 1.76752   
     axis -7.69462e-015 90 90   XYZ
    dof ry
    limits (-180.0 0.0)
 end
  begin
     id 21 
     name lhand
     direction 1 -4.48979e-011 1.90973e-026   
     length 0.667948   
     axis -1.21857e-014 90 90   XYZ
    dof rx rz
    limits (-90.0 90.0)
           (-45.0 45.0)
  end
  begin
     id 22 
     name lfingers
     direction 1 -4.48987e-011 3.81946e-026   
     length 0.538517   
     axis -2.43714e-014 90 90   XYZ
    dof rx
    limits (0.0 90.0)
  end
  begin
     id 23
     name lthumb
     direction 0.707107 -6.34962e-011 0.707107   
     length 0.773206   
     axis -90 45 2.85299e-015   XYZ
    dof rx rz
    limits (-45.0 45.0)
           (-45.0 45.0)
  end
  begin
     id 24 
     name rclavicle
     direction -0.898763 0.414256 -0.143584   
     length 3.5176  
     axis 0 0 0   XYZ 
    dof ry rz
    limits (-10.0 20.0)
           (-20.0 0.0)
  end
  begin
     id 25 
     name rhumerus
     direction -1 -4.48971e-011 1.129e-027  
     length 5.25035   
     axis 180 30 90   XYZ
    dof rx ry rz
    limits (-90.0 60.0)
           (-90.0 90.0)
           (-90.0 90.0)
  end
  begin
     id 26 
     name rradius
     direction -1 -4.48955e-011 6.34664e-027   
     length 3.58884   
     axis 180 30 90   XYZ
    dof rx
    limits (-10.0 170.0)
  end
  begin
     id 27 
     name rwrist
     direction -1 -4.48966e-011 9.54866e-027   
     length 1.79442   
     axis -7.69462e-015 -90 -90   XYZ
    dof ry
    limits (-180.0 0.0)
  end
  begin
     id 28
     name rhand
     direction -1 -4.48973e-011 1.90973e-026   
     length 0.779235   
     axis -1.21857e-014 -90 -90   XYZ
    dof rx rz
    limits (-90.0 90.0)
           (-45.0 45.0)
  end
  begin
     id 29
     name rfingers
     direction -1 -4.48984e-011 3.81946e-026   
     length 0.62824   
     axis -2.43714e-014 -90 -90   XYZ
    dof rx
    limits (0.0 90.0)
  end
  begin
     id 30
     name rthumb
     direction -0.707107 -6.34968e-011 0.707107   
     length 0.90203   
     axis -90 -45 -2.85299e-015   XYZ
    dof rx rz
    limits (-45.0 45.0)
           (-45.0 45.0)
  end
:hierarchy
  begin
    root lhipjoint rhipjoint lowerback
    lhipjoint lfemur
    lfemur ltibia
    ltibia lfoot
    lfoot ltoes
    rhipjoint rfemur
    rfemur rtibia
    rtibia rfoot
    rfoot rtoes
    lowerback upperback
    upperback thorax
    thorax lowerneck lclavicle rclavicle
    lowerneck upperneck
    upperneck head
    lclavicle lhumerus
    lhumerus lradius
    lradius lwrist
    lwrist lhand lthumb
    lhand lfingers
    rclavicle rhumerus
    rhumerus rradius
    rradius rwrist
    rwrist rhand rthumb
    rhand rfingers
  end

#!OML:ASF I:\Random Stuff\random\construction\7_22_03\Session 2\subj1.ASF
:FULLY-SPECIFIED
:DEGREES
36
root -21.2496 17.4925 -2.28227 -167.196 78.1691 -173.275
lowerback 1.26945 0.417286 0.246643
upperback -2.17687 0.608079 0.944005
thorax -2.95336 0.317637 0.807446
lowerneck -24.1308 -1.63619 -1.76751
upperneck 31.1641 -1.9166 2.17605
head 14.9282 -0.501274 0.884764
rclavicle -2.3059e-014 -1.39149e-015
rhumerus -38.1123 1.18759 -80.4204
rradius 31.9341
rwrist 2.91319
rhand -15.3989 18.9819
rfingers 7.12502
rthumb 10.78 -10.7215
lclavicle -2.3059e-014 -1.39149e-015
lhumerus -34.6249 -5.58273 91.0056
lradius 30.28
lwrist 23.3704
lhand -20.1055 53.2326
lfingers 7.12502
lthumb 6.23794 83.1208
rfemur -8.55555 24.1488 21.249
rtibia 19.1605
rfoot -25.1456 -44.2551
rtoes 25.3421
lfemur -16.2462 -20.9492 -15.1777
ltibia 26.5029
lfoot -14.0536 19.2126
ltoes -16.8517
37
root -21.247 17.4921 -2.28287 -167.897 78.1988 -174.037
lowerback 1.23125 0.425449 0.115649
upperback -2.192 0.613526 0.888453
thorax -2.9482 0.322532 0.823837
lowerneck -24.0686 -1.59423 -1.68119
upperneck 31.149 -1.88195 2.15409
head 14.9052 -0.479078 0.86772
rclavicle -5.26158e-015 -6.95746e-016
rhumerus -38.1133 1.23332 -80.4713
rradius 31.906
rwrist 2.8451
rhand -15.5136 18.9173
rfingers 7.12502
rthumb 10.6694 -10.7918
lclavicle -5.26158e-015 -6.95746e-016
lhumerus -34.6344 -5.63102 90.9709
lradius 30.3339
lwrist 23.4129
lhand -20.0989 53.1317
lfingers 7.12502
lthumb 6.24437 83.0196
rfemur -8.61674 24.1405 21.0511
rtibia 19.2163
rfoot -25.474 -44.1234
rtoes 25.7654
lfemur -16.2673 -20.9512 -15.344
ltibia 26.4862
lfoot -13.4396 19.1724
ltoes -17.2651
38
root -21.2458 17.4914 -2.28361 -168.565 78.2212 -174.76
lowerback 1.22522 0.44091 0.00628359
upperback -2.20649 0.629532 0.832929
thorax -2.96047 0.332224 0.827495
lowerneck -24.0637 -1.53672 -1.58293
upperneck 31.1647 -1.82423 2.11925
head 14.9081 -0.447059 0.848077
rclavicle 1.32502e-014 9.74045e-015
rhumerus -38.1236 1.10232 -80.442
rradius 31.8836
rwrist 2.95487
rhand -15.5853 18.9134
rfingers 7.12502
rthumb 10.6002 -10.7993
lclavicle 1.32502e-014 9.74045e-015
lhumerus -34.6199 -5.67673 90.94
lradius 30.3539
lwrist 23.357
lhand -19.9718 53.0243
lfingers 7.12502
lthumb 6.36704 82.9086
rfemur -8.71801 24.1245 20.8659
rtibia 19.3195
rfoot -25.318 -44.1745
rtoes 25.3334
lfemur -16.2761 -20.9664 -15.4987
ltibia 26.43
lfoot -13.365 19.1924
ltoes -17.0201
39
root -21.2431 17.4917 -2.28315 -168.592 78.2099 -174.823
lowerback 1.19118 0.453332 0.0227751
upperback -2.19509 0.646141 0.829073
thorax -2.92953 0.340005 0.813984
lowerneck -24.0679 -1.4673 -1.51386
upperneck 31.1176 -1.74213 2.09105
head 14.8842 -0.409232 0.839848
rclavicle -1.54741e-014 9.93923e-016
rhumerus -38.125 0.930702 -80.3839
rradius 31.9062
rwrist 3.07826
rhand -15.6231 18.9932
rfingers 7.12502
rthumb 10.5637 -10.7213
lclavicle -1.54741e-014 9.93923e-016
lhumerus -34.5979 -5.88489 91.0154
lradius 30.4087
lwrist 23.4036
lhand -20.019 53.1931
lfingers 7.12502
lthumb 6.32145 83.0788
rfemur -8.79397 24.1134 20.8555
rtibia 19.4229
rfoot -25.1854 -44.2333
rtoes 24.963
lfemur -16.2871 -20.9394 -15.4946
ltibia 26.3675
lfoot -13.8766 19.2112
ltoes -16.2033
40
root -21.2389 17.4936 -2.28404 -168.653 78.226 -174.961
lowerback 1.09238 0.456067 0.0261727
upperback -2.18931 0.64961 0.830069
thorax -2.86788 0.341701 0.813813
lowerneck -24.0913 -1.3813 -1.45676
upperneck 31.0969 -1.62709 2.05495
head 14.876 -0.35966 0.837177
rclavicle -8.74031e-015 5.1684e-015
rhumerus -38.1167 0.966904 -80.3845
rradius 31.9478
rwrist 3.097
rhand -15.7344 19.0008
rfingers 7.12502
rthumb 10.4563 -10.7192
lclavicle -8.74031e-015 5.1684e-015
lhumerus -34.5607 -6.01824 91.0785
lradius 30.4689
lwrist 23.6085
lhand -20.0988 53.1679
lfingers 7.12502
lthumb 6.24441 83.0559
rfemur -8.88243 24.1256 20.7992
rtibia 19.4829
rfoot -25.2491 -44.1918
rtoes 24.9446
lfemur -16.3371 -21.0418 -15.4929
ltibia 26.3296
lfoot -15.0351 19.3932
ltoes -14.4024
41
root -21.2348 17.4961 -2.28417 -168.72 78.2481 -175.071
lowerback 1.04515 0.458757 0.0276333
upperback -2.19165 0.653199 0.829609
thorax -2.8437 0.343519 0.812776
lowerneck -24.1356 -1.32601 -1.43148
upperneck 31.1334 -1.54606 2.03019
head 14.8998 -0.325301 0.83892
rclavicle -9.57272e-015 9.93923e-016
rhumerus -38.1418 1.02889 -80.4165
rradius 31.9838
rwrist 3.12906
rhand -15.9219 18.9224
rfingers 7.12502
rthumb 10.2755 -10.8066
lclavicle -9.57272e-015 9.93923e-016
lhumerus -34.4748 -5.876 91.0234
lradius 30.4017
lwrist 23.4625
lhand -19.9427 52.956
lfingers 7.12502
lthumb 6.39514 82.8394
rfemur -8.94086 24.1476 20.7562
rtibia 19.535
rfoot -25.3164 -44.165
rtoes 25.0091
lfemur -16.3347 -21.1234 -15.5017
ltibia 26.2949
lfoot -15.6879 19.4591
ltoes -13.3279
42
root -21.2316 17.4965 -2.28351 -168.796 78.2387 -175.149
lowerback 1.04646 0.452901 0.02465
upperback -2.18052 0.645333 0.838888
thorax -2.83301 0.339679 0.824289
lowerneck -24.1849 -1.29063 -1.40279
upperneck 31.1721 -1.49673 2.00724
head 14.9266 -0.303661 0.83465
rclavicle -4.25026e-014 -1.02374e-014
rhumerus -38.1469 1.00923 -80.4386
rradius 31.9887
rwrist 3.20074
rhand -16.0178 18.8162
rfingers 7.12502
rthumb 10.183 -10.9173
lclavicle -4.25026e-014 -1.02374e-014
lhumerus -34.3673 -5.64052 90.9388
lradius 30.3274
lwrist 23.2444
lhand -19.739 53.0325
lfingers 7.12502
lthumb 6.59177 82.9099
rfemur -8.94405 24.1407 20.763
rtibia 19.583
rfoot -25.2811 -44.2209
rtoes 24.9136
lfemur -16.3066 -21.0683 -15.5235
ltibia 26.2653
lfoot -15.7209 19.3877
ltoes -13.5425
43
root -21.228 17.4951 -2.28348 -168.836 78.2633 -175.2
lowerback 1.03083 0.472264 0.0205216
upperback -2.17106 0.671184 0.849599
thorax -2.81501 0.352753 0.836867
lowerneck -24.2831 -1.29945 -1.38602
upperneck 31.2808 -1.50662 1.98748
head 14.9978 -0.306428 0.823178
rclavicle 1.7785e-014 7.15625e-015
rhumerus -38.1178 0.974663 -80.4231
rradius 31.9595
rwrist 3.27131
rhand -15.9637 18.7278
rfingers 7.12502
rthumb 10.2352 -11.0032
lclavicle 1.7785e-014 7.15625e-015
lhumerus -34.2979 -5.63182 90.9741
lradius 30.3458
lwrist 23.2752
lhand -19.7178 53.1201
lfingers 7.12502
lthumb 6.61225 82.9969
rfemur -8.96002 24.1643 20.7605
rtibia 19.6163
rfoot -25.1989 -44.2943
rtoes 24.7508
lfemur -16.3054 -20.9782 -15.5481
ltibia 26.2572
lfoot -15.107 19.3672
ltoes -14.1764
44
root -21.2238 17.4954 -2.28276 -168.811 78.3152 -175.19
lowerback 1.01962 0.489226 0.000646694
upperback -2.16856 0.693912 0.870226
thorax -2.80696 0.364817 0.868503
lowerneck -24.4044 -1.33861 -1.40677
upperneck 31.412 -1.55163 1.98507
head 15.0862 -0.325689 0.818675
rclavicle 1.91951e-014 4.37326e-015
rhumerus -38.0581 0.98058 -80.3971
rradius 31.9058
rwrist 3.30171
rhand -15.8401 18.6285
rfingers 7.12502
rthumb 10.3544 -11.0965
lclavicle 1.91951e-014 4.37326e-015
lhumerus -34.2097 -5.58802 90.9968
lradius 30.3342
lwrist 23.4388
lhand -19.7436 52.8747
lfingers 7.12502
lthumb 6.58736 82.7523
rfemur -8.99936 24.2227 20.7514
rtibia 19.6689
rfoot -25.3601 -44.2604
rtoes 24.9808
lfemur -16.2908 -20.9311 -15.5555
ltibia 26.2462
lfoot -14.4905 19.3613
ltoes -14.5371
45
root -21.2208 17.4943 -2.28221 -168.836 78.3564 -175.226
lowerback 1.01943 0.474452 -0.0443365
upperback -2.1547 0.674032 0.912296
thorax -2.79335 0.356322 0.937666
lowerneck -24.4805 -1.32851 -1.41725
upperneck 31.4529 -1.52975 1.97741
head 15.1214 -0.318624 0.821997
rclavicle -2.45126e-014 -8.54774e-015
rhumerus -37.9635 1.08628 -80.3963
rradius 31.8387
rwrist 3.28849
rhand -15.7737 18.6101
rfingers 7.12502
rthumb 10.4184 -11.1117
lclavicle -2.45126e-014 -8.54774e-015
lhumerus -34.1493 -5.44064 90.9952
lradius 30.3541
lwrist 23.4212
lhand -19.67 52.606
lfingers 7.12502
lthumb 6.65837 82.4814
rfemur -9.02698 24.2695 20.7264
rtibia 19.7121
rfoot -25.723 -44.1248
rtoes 25.5955
lfemur -16.2788 -20.9891 -15.5634
ltibia 26.2373
lfoot -15.4942 19.4702
ltoes -13.4948
46
root -21.2184 17.4913 -2.28232 -168.76 78.3969 -175.174
lowerback 1.01461 0.471067 -0.0488661
upperback -2.1581 0.670627 0.947926
thorax -2.79459 0.3553 0.976937
lowerneck -24.488 -1.2879 -1.38358
upperneck 31.4659 -1.47824 1.96267
head 15.1273 -0.294721 0.820486
rclavicle 8.04457e-015 -5.36719e-015
rhumerus -37.9273 1.19449 -80.4137
rradius 31.784
rwrist 3.29143
rhand -15.8372 18.7075
rfingers 7.12502
rthumb 10.3572 -11.0175
lclavicle 8.04457e-015 -5.36719e-015
lhumerus -34.1491 -5.30448 90.9659
lradius 30.4069
lwrist 23.2668
lhand -19.4823 52.4764
lfingers 7.12502
lthumb 6.83957 82.346
rfemur -9.05949 24.3154 20.7163
rtibia 19.7205
rfoot -25.607 -44.1625
rtoes 25.3788
lfemur -16.3017 -21.0693 -15.5441
ltibia 26.2502
lfoot -14.2361 19.4472
ltoes -14.1823
47
root -21.2158 17.4925 -2.28192 -168.679 78.4043 -175.081
lowerback 1.07974 0.471298 -0.0181894
upperback -2.18444 0.672693 0.953328
thorax -2.8582 0.35603 0.964555
lowerneck -24.4716 -1.26163 -1.32595
upperneck 31.511 -1.46593 1.9757
head 15.1438 -0.278807 0.819428
rclavicle 2.82709e-014 1.45113e-014
rhumerus -37.9679 1.17352 -80.4291
rradius 31.7578
rwrist 3.30224
rhand -15.8013 18.7876
rfingers 7.12502
rthumb 10.3919 -10.9356
lclavicle 2.82709e-014 1.45113e-014
lhumerus -34.2017 -5.30982 90.9508
lradius 30.492
lwrist 23.2764
lhand -19.4695 52.5468
lfingers 7.12502
lthumb 6.85191 82.4159
rfemur -9.03326 24.3292 20.7617
rtibia 19.7343
rfoot -25.3565 -44.2743
rtoes 24.8402
lfemur -16.28 -21.1833 -15.5176
ltibia 26.2642
lfoot -14.8743 19.5526
ltoes -12.8252
48
root -21.2126 17.494 -2.28079 -168.742 78.4108 -175.112
lowerback 1.17547 0.465235 -0.0170963
upperback -2.20134 0.665271 0.954507
thorax -2.92948 0.352456 0.964556
lowerneck -24.4442 -1.23732 -1.3047
upperneck 31.5125 -1.44307 1.98913
head 15.1378 -0.264179 0.826099
rclavicle -8.03214e-015 4.77083e-015
rhumerus -37.9959 1.06998 -80.4033
rradius 31.7522
rwrist 3.35086
rhand -15.5948 18.8885
rfingers 7.12502
rthumb 10.5911 -10.8246
lclavicle -8.03214e-015 4.77083e-015
lhumerus -34.2756 -5.39902 90.9904
lradius 30.6257
lwrist 23.4818
lhand -19.7043 52.7818
lfingers 7.12502
lthumb 6.62528 82.6582
rfemur -8.97763 24.3403 20.7932
rtibia 19.7406
rfoot -25.2923 -44.326
rtoes 24.6951
lfemur -16.2205 -21.2585 -15.5289
ltibia 26.2724
lfoot -15.6269 19.6369
ltoes -12.0746
49
root -21.2083 17.4916 -2.27999 -168.69 78.4575 -175.087
lowerback 1.1596 0.479865 -0.00843037
upperback -2.20631 0.685282 0.95842
thorax -2.92595 0.362383 0.963085
lowerneck -24.4422 -1.22254 -1.3062
upperneck 31.4927 -1.4135 1.96737
head 15.1273 -0.255813 0.822743
rclavicle 1.66855e-014 9.93923e-015
rhumerus -38.0018 0.984061 -80.3746
rradius 31.7882
rwrist 3.39787
rhand -15.4652 19.0124
rfingers 7.12502
rthumb 10.716 -10.6943
lclavicle 1.66855e-014 9.93923e-015
lhumerus -34.305 -5.51184 91.0472
lradius 30.7345
lwrist 23.7722
lhand -19.9231 53.0074
lfingers 7.12502
lthumb 6.41405 82.8902
rfemur -8.98603 24.397 20.7923
rtibia 19.7099
rfoot -25.2347 -44.3583
rtoes 24.6323
lfemur -16.2392 -21.1828 -15.5278
ltibia 26.286
lfoot -15.5416 19.6569
ltoes -12.1905
50
root -21.2049 17.4914 -2.28079 -168.558 78.4926 -175.021
lowerback 1.08342 0.504895 0.0313182
upperback -2.21054 0.719465 0.950078
thorax -2.88734 0.378554 0.931638
lowerneck -24.4498 -1.20947 -1.32313
upperneck 31.4705 -1.39146 1.97742
head 15.1185 -0.247722 0.833848
rclavicle 2.20775e-014 -1.45113e-014
rhumerus -38.0381 0.92185 -80.3925
rradius 31.8773
rwrist 3.3713
rhand -15.5257 19.1276
rfingers 7.12502
rthumb 10.6577 -10.5821
lclavicle 2.20775e-014 -1.45113e-014
lhumerus -34.2956 -5.63043 91.108
lradius 30.7796
lwrist 23.8949
lhand -19.9449 53.1701
lfingers 7.12502
lthumb 6.393 83.0536
rfemur -9.05404 24.4361 20.762
rtibia 19.6739
rfoot -25.2401 -44.3362
rtoes 24.6494
lfemur -16.3061 -21.0887 -15.5074
ltibia 26.2936
lfoot -14.7973 19.6672
ltoes -12.9305
